<?xml version="1.0" encoding="utf-8"?>
<!-- Generator: Adobe Illustrator 25.2.1, SVG Export Plug-In . SVG Version: 6.00 Build 0)  -->
<svg version="1.1" id="Layer_1" xmlns="http://www.w3.org/2000/svg" xmlns:xlink="http://www.w3.org/1999/xlink" x="0px" y="0px"
	 viewBox="0 0 118 134" style="enable-background:new 0 0 118 134;" xml:space="preserve">
<style type="text/css">
	.st0{fill:#0F0F0F;stroke:#000000;stroke-miterlimit:10;}
	.st1{fill:#CE7D63;}
	.st2{fill-rule:evenodd;clip-rule:evenodd;fill:#0F0F0F;}
</style>
<rect y="0" class="st0" width="118" height="134"/>
<path class="st1" d="M74,15.4L74,15.4c24.3,0,44,19.7,44,44v0c0,24.3-19.7,44-44,44l0,0c-24.3,0-44-19.7-44-44v0
	C30,35.1,49.7,15.4,74,15.4z"/>
<path class="st2" d="M64.6,38.8l28.1,0c0.5,0,1,0.2,1.3,0.5c0.4,0.4,0.5,0.8,0.5,1.3v28.1c0,1-0.8,1.9-1.9,1.9c-1,0-1.9-0.8-1.9-1.9
	V45.2L56.6,79.5c-0.7,0.7-1.9,0.7-2.7,0c-0.7-0.7-0.7-1.9,0-2.7l34.3-34.3l-23.6,0c-1,0-1.9-0.8-1.9-1.9
	C62.8,39.6,63.6,38.8,64.6,38.8z"/>
<path class="st1" d="M106.8,126.1c-16.6,8-35.5,9.5-53.2,4.3c-17.7-5.2-32.8-16.7-42.5-32.4C1.4,82.4-2.1,63.7,1.2,45.6
	C4.5,27.5,14.4,11.3,28.9,0l2,2.6C17,13.4,7.6,28.9,4.5,46.2c-3.1,17.3,0.2,35.1,9.5,50.1c9.2,15,23.7,26,40.6,30.9
	c16.9,4.9,35,3.5,50.8-4.2L106.8,126.1z"/>
</svg>
