<?xml version="1.0" encoding="utf-8"?>
<!-- Generator: Adobe Illustrator 25.2.1, SVG Export Plug-In . SVG Version: 6.00 Build 0)  -->
<svg version="1.1" id="Layer_1" xmlns="http://www.w3.org/2000/svg" xmlns:xlink="http://www.w3.org/1999/xlink" x="0px" y="0px"
	 viewBox="0 0 68 77" style="enable-background:new 0 0 68 77;" xml:space="preserve">
<style type="text/css">
	.st0{fill:#CE7D63;}
	.st1{fill:none;stroke:#0F0F0F;stroke-width:1.5;stroke-linecap:round;stroke-linejoin:round;}
</style>
<path class="st0" d="M38,13L38,13c14.4,0,26,11.6,26,26l0,0c0,14.4-11.6,26-26,26l0,0c-14.4,0-26-11.6-26-26l0,0
	C12,24.6,23.6,13,38,13z"/>
<path class="st1" d="M39.5,31.5L47,39 M47,39l-7.5,7.5 M47,39H29"/>
<path class="st0" d="M67.7,63.6c-5.1,6-12,10.2-19.6,12.2S32.4,77.3,25,74.5S11.2,66.8,6.8,60.3C2.3,53.8-0.1,46.1,0,38.2
	c0.1-7.9,2.5-15.6,7.1-22c4.6-6.4,11-11.3,18.4-14c7.4-2.7,15.5-3,23.1-0.9C56.1,3.4,62.9,7.7,68,13.8l-1.3,1.1
	C61.8,9.1,55.4,5,48.1,3s-15-1.6-22,0.9S12.8,11.1,8.5,17.2c-4.3,6.1-6.7,13.5-6.8,21c-0.1,7.5,2.2,14.9,6.5,21.1
	c4.3,6.2,10.3,10.9,17.4,13.6c7,2.6,14.7,3.1,22,1.2s13.8-5.9,18.8-11.6L67.7,63.6z"/>
</svg>
